<svg width="34" height="34" viewBox="0 0 34 34" fill="none" xmlns="http://www.w3.org/2000/svg">
<path d="M31.0117 14.0117H19.9883V2.98828C19.9883 1.33789 18.6504 0 17 0C15.3496 0 14.0117 1.33789 14.0117 2.98828V14.0117H2.98828C1.33789 14.0117 0 15.3496 0 17C0 18.6504 1.33789 19.9883 2.98828 19.9883H14.0117V31.0117C14.0117 32.6621 15.3496 34 17 34C18.6504 34 19.9883 32.6621 19.9883 31.0117V19.9883H31.0117C32.6621 19.9883 34 18.6504 34 17C34 15.3496 32.6621 14.0117 31.0117 14.0117Z" fill="white"/>
</svg>
