<svg width="30" height="26" viewBox="0 0 30 26" fill="none" xmlns="http://www.w3.org/2000/svg">
<path d="M29.234 9.68911C29.0229 9.22191 28.7879 8.76586 28.53 8.32275L25.2078 17.3472C25.0811 17.6844 24.8968 17.997 24.6632 18.2711C25.555 18.1829 26.4143 17.8898 27.1742 17.4148C27.9341 16.9399 28.574 16.2958 29.044 15.5328C29.5141 14.7699 29.8016 13.9087 29.8841 13.0164C29.9666 12.1241 29.8418 11.2248 29.5196 10.3886C29.4311 10.1504 29.3362 9.91879 29.234 9.68911Z" fill="url(#paint0_linear_708_307)"/>
<path d="M10.1661 1.55538C8.22759 2.24542 6.44823 3.3195 4.93455 4.71333C3.42087 6.10716 2.20399 7.79208 1.35674 9.66723C0.509501 11.5424 0.0493216 13.5692 0.00375165 15.6264C-0.0418183 17.6835 0.328158 19.7287 1.09153 21.6396C1.1117 21.6805 1.12537 21.7209 1.14554 21.7619C1.55109 22.7304 2.21138 23.571 3.05627 24.1944C3.90116 24.8178 4.89911 25.2007 5.94415 25.3025C6.98918 25.4044 8.04229 25.2213 8.99163 24.7727C9.94096 24.3241 10.7511 23.6268 11.336 22.7548C12.5593 20.9121 14.3154 19.4862 16.37 18.6674C16.4351 18.6414 16.5002 18.6219 16.5652 18.5978C16.7965 18.0641 17.1408 17.5869 17.5742 17.1991C18.0077 16.8112 18.5201 16.5219 19.0761 16.3511C19.0625 15.8611 19.163 15.3746 19.3695 14.9301L24.5096 3.79946C22.4906 2.26892 20.1236 1.26282 17.6205 0.871203C15.1173 0.47958 12.5561 0.714652 10.1661 1.55538ZM6.17764 18.5373C5.6629 18.5373 5.15971 18.3846 4.73172 18.0987C4.30373 17.8127 3.97015 17.4062 3.77316 16.9306C3.57618 16.4551 3.52464 15.9318 3.62506 15.4269C3.72548 14.9221 3.97336 14.4584 4.33733 14.0944C4.70131 13.7304 5.16505 13.4825 5.6699 13.3821C6.17475 13.2817 6.69805 13.3332 7.17361 13.5302C7.64917 13.7272 8.05564 14.0608 8.34161 14.4888C8.62759 14.9168 8.78023 15.4199 8.78023 15.9347C8.78023 16.6249 8.50603 17.2869 8.01795 17.775C7.52987 18.2631 6.86789 18.5373 6.17764 18.5373ZM9.43088 11.0548C8.91613 11.0548 8.41295 10.9022 7.98496 10.6162C7.55696 10.3302 7.22338 9.92377 7.0264 9.44821C6.82941 8.97265 6.77787 8.44935 6.8783 7.9445C6.97872 7.43965 7.22659 6.97591 7.59057 6.61193C7.95455 6.24795 8.41828 6.00008 8.92314 5.89966C9.42799 5.79924 9.95128 5.85078 10.4268 6.04776C10.9024 6.24475 11.3089 6.57833 11.5948 7.00632C11.8808 7.43431 12.0335 7.9375 12.0335 8.45224C12.0335 9.14249 11.7593 9.80447 11.2712 10.2925C10.7831 10.7806 10.1211 11.0548 9.43088 11.0548ZM17.2386 8.77756C16.7239 8.77756 16.2207 8.62492 15.7927 8.33895C15.3647 8.05297 15.0311 7.6465 14.8342 7.17094C14.6372 6.69538 14.5856 6.17209 14.6861 5.66724C14.7865 5.16238 15.0344 4.69865 15.3983 4.33467C15.7623 3.97069 16.226 3.72282 16.7309 3.6224C17.2358 3.52197 17.759 3.57351 18.2346 3.7705C18.7102 3.96748 19.1166 4.30106 19.4026 4.72906C19.6886 5.15705 19.8412 5.66023 19.8412 6.17498C19.8412 6.86523 19.567 7.5272 19.0789 8.01528C18.5909 8.50336 17.9289 8.77756 17.2386 8.77756Z" fill="url(#paint1_linear_708_307)"/>
<path d="M28.9361 0.0924676C28.6474 -0.027438 28.3234 -0.0308523 28.0323 0.082941C27.7411 0.196734 27.5054 0.418888 27.3745 0.702774L20.5531 15.4757C20.396 15.8155 20.3452 16.1949 20.4073 16.564C20.4695 16.9332 20.6416 17.2751 20.9012 17.5448C20.2671 17.396 19.6008 17.4773 19.021 17.7742C18.4413 18.071 17.9858 18.5641 17.7358 19.1655C16.6824 21.7096 18.3487 22.8254 17.2947 25.3694C18.4963 25.2352 19.641 24.7852 20.6124 24.0653C21.5838 23.3453 22.3472 22.381 22.8252 21.2704C23.0502 20.7235 23.0926 20.1185 22.9461 19.5456C22.7995 18.9726 22.4719 18.4623 22.0119 18.0907C22.4279 18.1443 22.8498 18.0553 23.2087 17.8382C23.5675 17.6211 23.8422 17.2888 23.9879 16.8954L29.6095 1.62409C29.7162 1.33121 29.7058 1.00842 29.5803 0.723061C29.4548 0.437698 29.224 0.211794 28.9361 0.0924676Z" fill="url(#paint2_linear_708_307)"/>
<defs>
<linearGradient id="paint0_linear_708_307" x1="27.286" y1="8.32275" x2="27.286" y2="18.2711" gradientUnits="userSpaceOnUse">
<stop offset="0.0885417" stop-color="#59ACC9"/>
<stop offset="1" stop-color="#183E4B"/>
</linearGradient>
<linearGradient id="paint1_linear_708_307" x1="12.2548" y1="0.687012" x2="12.2548" y2="25.3299" gradientUnits="userSpaceOnUse">
<stop offset="0.0885417" stop-color="#59ACC9"/>
<stop offset="1" stop-color="#183E4B"/>
</linearGradient>
<linearGradient id="paint2_linear_708_307" x1="23.4886" y1="0" x2="23.4886" y2="25.3694" gradientUnits="userSpaceOnUse">
<stop offset="0.0885417" stop-color="#59ACC9"/>
<stop offset="1" stop-color="#183E4B"/>
</linearGradient>
</defs>
</svg>
