<svg width="32" height="28" viewBox="0 0 32 28" fill="none" xmlns="http://www.w3.org/2000/svg">
<path d="M30.5934 10.4721C30.2355 9.69045 29.8141 8.93949 29.3334 8.22673L31.2234 3.09339C31.3139 2.87496 31.3605 2.64085 31.3605 2.40442C31.3605 2.16799 31.3139 1.93387 31.2234 1.71543C31.133 1.497 31.0003 1.29853 30.8332 1.13134C30.666 0.964158 30.4675 0.83154 30.2491 0.741059C30.0307 0.650578 29.7965 0.604007 29.5601 0.604004C29.3237 0.604001 29.0896 0.650566 28.8711 0.741042C28.6527 0.831517 28.4542 0.96413 28.287 1.13131C28.1199 1.29849 27.9872 1.49696 27.8968 1.71539L26.4001 4.95406C24.2988 3.20335 21.7806 2.02556 19.0899 1.53496C16.3992 1.04436 13.6274 1.25763 11.0434 2.15406C9.06969 2.85045 7.25793 3.9404 5.71799 5.35784C4.17805 6.77528 2.94199 8.49069 2.08475 10.4001C1.19698 12.3431 0.713156 14.4462 0.662618 16.5819C0.61208 18.7175 0.995884 20.8412 1.79075 22.8241C2.20632 23.8885 2.91024 24.8161 3.82355 25.5029C4.73686 26.1896 5.82344 26.6083 6.96142 26.7121C7.19194 26.7365 7.4236 26.7487 7.65542 26.7487C8.70582 26.7527 9.74088 26.4966 10.6682 26.0033C11.5956 25.5099 12.3864 24.7947 12.9701 23.9214C14.0958 22.2282 15.7109 20.9185 17.6001 20.1667C18.107 19.9661 18.6291 19.806 19.1614 19.6881C18.8847 19.9749 18.6641 20.3109 18.5107 20.6787C18.0921 21.7034 18.0061 22.8338 18.2647 23.9101C18.4807 24.7396 18.4239 25.6166 18.1027 26.4114C18.0607 26.5129 18.0443 26.6233 18.0552 26.7326C18.066 26.842 18.1038 26.9469 18.165 27.0382C18.2262 27.1294 18.3091 27.2042 18.4061 27.2557C18.5032 27.3072 18.6115 27.3339 18.7214 27.3334H18.7687C20.004 27.2042 21.1821 26.7465 22.1806 26.0079C23.1791 25.2693 23.9616 24.2767 24.4468 23.1334C24.679 22.5685 24.7453 21.9491 24.6377 21.3479C24.5301 20.7467 24.2532 20.1887 23.8394 19.7394C24.9488 19.9381 26.091 19.8382 27.149 19.45C28.207 19.0618 29.1428 18.3992 29.8604 17.5302C30.578 16.6612 31.0516 15.617 31.2326 14.5046C31.4137 13.3923 31.2957 12.2518 30.8908 11.2001C30.8001 10.9541 30.7014 10.7154 30.5934 10.4721ZM29.1054 2.27206C29.1429 2.19029 29.2033 2.12111 29.2792 2.07285C29.3552 2.02459 29.4434 1.99931 29.5334 2.00006C29.595 1.99988 29.656 2.01212 29.7128 2.03606C29.8249 2.08194 29.9148 2.16965 29.9635 2.28063C30.0121 2.39161 30.0157 2.51716 29.9734 2.63073L24.6914 16.9721C24.6413 17.1087 24.5642 17.2337 24.4645 17.3398C24.3649 17.4458 24.2448 17.5305 24.1116 17.589C23.9784 17.6474 23.8347 17.6783 23.6892 17.6798C23.5437 17.6814 23.3994 17.6534 23.265 17.5978C23.1306 17.5421 23.0088 17.4598 22.907 17.3559C22.8052 17.2519 22.7254 17.1285 22.6725 16.993C22.6197 16.8574 22.5947 16.7126 22.5992 16.5672C22.6037 16.4217 22.6376 16.2787 22.6988 16.1467L29.1054 2.27206ZM17.1087 18.9281C14.9672 19.7798 13.1363 21.2643 11.8601 23.1834C11.3463 23.9527 10.6304 24.5655 9.79095 24.9543C8.95153 25.3432 8.02114 25.493 7.10208 25.3874C6.20665 25.3068 5.35137 24.9784 4.63213 24.439C3.91289 23.8996 3.35814 23.1704 3.03008 22.3334C2.3015 20.5169 1.94945 18.5713 1.99529 16.6147C2.04113 14.6581 2.4839 12.7311 3.29675 10.9507C4.08028 9.20426 5.21041 7.63516 6.6186 6.33859C8.02678 5.04203 9.68366 4.04503 11.4887 3.40806C13.912 2.56856 16.5144 2.38609 19.0311 2.87921C21.5478 3.37234 23.8889 4.52345 25.8161 6.21539L21.4874 15.5881C21.2923 15.9995 21.2206 16.4587 21.2809 16.9101C21.3413 17.3614 21.5311 17.7856 21.8274 18.1314C20.2159 18.0601 18.6076 18.3316 17.1087 18.9281ZM23.2148 22.6254C22.901 23.3874 22.4188 24.0684 21.8043 24.6176C21.1899 25.1667 20.4591 25.5696 19.6667 25.7961C19.7625 25.0947 19.7347 24.3819 19.5848 23.6901C19.3694 22.8605 19.4262 21.9836 19.7467 21.1887C19.8388 20.9576 19.9758 20.7471 20.1499 20.5693C20.3239 20.3916 20.5316 20.2502 20.7608 20.1534C20.9899 20.0566 21.2361 20.0063 21.4848 20.0054C21.7336 20.0045 21.9801 20.0531 22.21 20.1482C22.4398 20.2434 22.6485 20.3833 22.8238 20.5598C22.9991 20.7363 23.1377 20.9458 23.2313 21.1763C23.325 21.4068 23.372 21.6535 23.3695 21.9023C23.367 22.1511 23.315 22.3969 23.2168 22.6254H23.2148ZM28.7728 16.7587C28.3241 17.292 27.768 17.7246 27.1408 18.0282C26.5135 18.3318 25.8293 18.4996 25.1328 18.5207C25.5018 18.2447 25.7831 17.8677 25.9428 17.4354L28.7528 9.80006C28.9801 10.2001 29.1894 10.6001 29.3761 11.0174C29.4708 11.2321 29.5594 11.4461 29.6461 11.6787C29.9845 12.523 30.0821 13.4446 29.9279 14.341C29.7737 15.2374 29.3738 16.0734 28.7728 16.7561V16.7587Z" fill="black"/>
<path d="M7 14C6.40666 14 5.82664 14.1759 5.33329 14.5056C4.83994 14.8352 4.45543 15.3038 4.22836 15.852C4.0013 16.4001 3.94189 17.0033 4.05765 17.5853C4.1734 18.1672 4.45912 18.7018 4.87868 19.1213C5.29824 19.5409 5.83279 19.8266 6.41473 19.9424C6.99667 20.0581 7.59987 19.9987 8.14805 19.7716C8.69623 19.5446 9.16477 19.1601 9.49441 18.6667C9.82405 18.1734 10 17.5933 10 17C9.99912 16.2046 9.68277 15.4421 9.12035 14.8797C8.55793 14.3172 7.79538 14.0009 7 14ZM7 18.6667C6.67037 18.6667 6.34813 18.5689 6.07405 18.3858C5.79997 18.2026 5.58635 17.9423 5.4602 17.6378C5.33406 17.3333 5.30105 16.9982 5.36536 16.6748C5.42967 16.3515 5.5884 16.0546 5.82149 15.8215C6.05458 15.5884 6.35155 15.4297 6.67485 15.3654C6.99815 15.301 7.33326 15.3341 7.63781 15.4602C7.94235 15.5863 8.20265 15.8 8.38578 16.074C8.56892 16.3481 8.66667 16.6704 8.66667 17C8.66667 17.442 8.49107 17.866 8.17851 18.1785C7.86595 18.4911 7.44203 18.6667 7 18.6667Z" fill="black"/>
<path d="M10.3335 6.3335C9.74015 6.3335 9.16013 6.50944 8.66679 6.83909C8.17344 7.16873 7.78892 7.63727 7.56186 8.18545C7.3348 8.73362 7.27539 9.33682 7.39114 9.91877C7.5069 10.5007 7.79262 11.0353 8.21218 11.4548C8.63174 11.8744 9.16628 12.1601 9.74823 12.2759C10.3302 12.3916 10.9334 12.3322 11.4815 12.1051C12.0297 11.8781 12.4983 11.4936 12.8279 11.0002C13.1576 10.5069 13.3335 9.92684 13.3335 9.3335C13.3326 8.53812 13.0163 7.77557 12.4538 7.21315C11.8914 6.65073 11.1289 6.33438 10.3335 6.3335ZM10.3335 11.0002C10.0039 11.0002 9.68163 10.9024 9.40755 10.7193C9.13347 10.5361 8.91984 10.2758 8.7937 9.9713C8.66755 9.66676 8.63455 9.33165 8.69886 9.00835C8.76316 8.68504 8.9219 8.38807 9.15499 8.15498C9.38807 7.9219 9.68505 7.76316 10.0083 7.69885C10.3316 7.63455 10.6668 7.66755 10.9713 7.7937C11.2758 7.91984 11.5361 8.13346 11.7193 8.40755C11.9024 8.68163 12.0002 9.00386 12.0002 9.3335C12.0002 9.77552 11.8246 10.1994 11.512 10.512C11.1994 10.8246 10.7755 11.0002 10.3335 11.0002Z" fill="black"/>
<path d="M19 4.6665C18.4067 4.6665 17.8266 4.84245 17.3333 5.1721C16.8399 5.50174 16.4554 5.97028 16.2284 6.51845C16.0013 7.06663 15.9419 7.66983 16.0576 8.25178C16.1734 8.83372 16.4591 9.36827 16.8787 9.78782C17.2982 10.2074 17.8328 10.4931 18.4147 10.6089C18.9967 10.7246 19.5999 10.6652 20.1481 10.4381C20.6962 10.2111 21.1648 9.82656 21.4944 9.33322C21.8241 8.83987 22 8.25985 22 7.6665C21.9991 6.87113 21.6828 6.10858 21.1203 5.54616C20.5579 4.98374 19.7954 4.66739 19 4.6665ZM19 9.33317C18.6704 9.33317 18.3481 9.23542 18.0741 9.05229C17.8 8.86915 17.5863 8.60885 17.4602 8.30431C17.3341 7.99977 17.3011 7.66465 17.3654 7.34135C17.4297 7.01805 17.5884 6.72108 17.8215 6.48799C18.0546 6.25491 18.3515 6.09617 18.6749 6.03186C18.9982 5.96755 19.3333 6.00056 19.6378 6.1267C19.9424 6.25285 20.2026 6.46647 20.3858 6.74055C20.5689 7.01464 20.6667 7.33687 20.6667 7.6665C20.6667 8.10853 20.4911 8.53245 20.1785 8.84502C19.866 9.15758 19.442 9.33317 19 9.33317Z" fill="black"/>
</svg>
