<svg width="50" height="50" viewBox="0 0 50 50" fill="none" xmlns="http://www.w3.org/2000/svg">
<g clip-path="url(#clip0_353_111)">
<path d="M50 25C50 38.8071 38.8071 50 25 50C11.1929 50 0 38.8071 0 25C0 11.1929 11.1929 0 25 0C38.8071 0 50 11.1929 50 25Z" fill="#FFF79F"/>
<path d="M38.0585 20.0763L34.5057 29.8373L31.8719 37.0739L28.9315 45.1523C28.3954 46.6255 26.7665 47.3851 25.2933 46.8488C25.1556 46.7987 25.0242 46.739 24.8994 46.6708C24.7795 46.7354 24.6537 46.7924 24.5218 46.8403C23.0487 47.3765 21.4199 46.617 20.8838 45.1438L11.7568 20.0678C11.2547 18.6881 11.966 17.1626 13.3457 16.6604L13.6841 16.5373C15.0637 16.0352 16.5892 16.7465 17.0914 18.1262L20.6441 27.8872L22.1613 32.0558V16.8802C22.1613 15.4119 23.3515 14.2217 24.8197 14.2217H25.1798C26.648 14.2217 27.8383 15.4119 27.8383 16.8802V27.2676V31.5571L32.7236 18.1347C33.2258 16.755 34.7512 16.0437 36.1309 16.5458L36.4693 16.6689C37.8493 17.1711 38.5606 18.6966 38.0585 20.0763Z" fill="#B9783D"/>
<path d="M37.3421 17.2727C36.2809 17.369 35.3182 18.0613 34.9295 19.129L25.8642 44.0358C25.6319 44.6738 25.6445 45.3403 25.8512 45.9352C25.9643 46.0098 26.0828 46.0769 26.2063 46.135C26.1303 46.1707 26.0519 46.2024 25.9724 46.2315C26.1093 46.5174 26.2929 46.7811 26.5189 47.0087C26.1159 47.0453 25.6988 46.9964 25.2934 46.8488C25.1554 46.7986 25.0236 46.7388 24.8986 46.6704C24.7788 46.735 24.6536 46.7925 24.522 46.8403C23.0488 47.3765 21.42 46.617 20.8839 45.1438L11.8186 20.237C11.2824 18.764 12.0419 17.1351 13.515 16.5989C13.9205 16.4514 14.3376 16.4024 14.7406 16.4391C13.9896 17.195 13.6972 18.3442 14.0857 19.4119L22.1615 41.5999V17.0602C22.1615 15.4925 23.4323 14.2217 25 14.2217C25.4314 14.2217 25.8401 14.3184 26.2063 14.4906C25.242 14.9441 24.5742 15.924 24.5742 17.0602V40.5256L32.6623 18.3038C33.1984 16.8307 34.8273 16.0712 36.3004 16.6073C36.7059 16.7549 37.0568 16.9855 37.3421 17.2727Z" fill="#965028"/>
<path d="M30.4932 3.35127L29.5133 6.82676L28.0479 11.2424C27.2654 11.0483 26.1891 10.9284 25 10.9284C23.8109 10.9284 22.7346 11.0484 21.9522 11.2424L20.5039 6.87852L19.6648 3.35127C19.4439 2.68564 19.6833 1.94775 20.2637 1.554C21.709 0.573242 23.1217 0.244141 25 0.244141C26.8783 0.244141 28.4489 0.573242 29.8943 1.554C30.4747 1.94785 30.7141 2.68574 30.4932 3.35127ZM40.9424 4.66309C40.9614 4.60908 40.952 4.54883 40.9375 4.49346C40.8697 4.23252 41.0399 4.01855 40.8203 4.1748L35.083 8.49609C34.4709 8.93164 33.764 9.21211 33.4042 9.82803C32.5716 11.2536 32.4476 13.0392 33.1825 14.6152C33.827 15.9973 35.0054 16.9599 36.3575 17.372C37.5334 17.7303 38.8405 17.6724 40.0423 17.112C40.8954 16.7142 41.6418 16.1377 42.1017 15.3766C42.6621 14.4489 42.8778 13.5374 42.8874 12.6469C42.9203 9.56143 40.1037 7.03789 40.9424 4.66309ZM8.88672 3.90625C8.25196 6.22559 7.88458 9.49629 8.58262 12.3849C8.71817 12.9457 8.87432 13.4721 9.04659 13.9453C10.1059 16.8557 11.5716 17.2034 14.1751 18.4121C15.3926 15.8127 16.2919 14.6042 15.2325 11.6938C15.057 11.2117 14.8524 10.6882 14.5704 10.1712C13.1104 7.49512 11.1084 5.51758 8.88672 3.90625Z" fill="#80391B"/>
<path d="M30.6667 3.35127L29.4273 7.08603C28.9616 7.01826 28.5893 6.6665 28.4895 6.21172V3.85068C28.4895 3.22666 27.9836 2.7209 27.3597 2.7209H27.2739C26.6499 2.7209 26.1442 3.22676 26.1442 3.85068V4.05322C26.0304 4.55693 25.581 4.9335 25.0429 4.9335H24.9571C24.4191 4.9335 23.9696 4.55703 23.8559 4.05322V3.85068C23.8559 3.22666 23.35 2.7209 22.7261 2.7209H22.6404C22.0164 2.7209 21.5106 3.22676 21.5106 3.85068V6.21201C21.4108 6.6667 21.0384 7.01836 20.5728 7.08613L19.3333 3.35137C19.1124 2.68574 19.3518 1.94785 19.9321 1.5541C21.3775 0.573242 23.1217 0 25 0C26.8783 0 28.6226 0.573242 30.0679 1.554C30.6483 1.94785 30.8876 2.68574 30.6667 3.35127Z" fill="#C96D6D"/>
<path d="M42.8759 12.9425C42.6101 13.1221 42.2655 13.1772 41.941 13.059C41.476 12.8898 41.2064 12.4222 41.2684 11.951L41.3454 11.7394C41.5411 11.2016 41.2639 10.6069 40.7261 10.4112C40.1883 10.2155 39.5936 10.4927 39.3979 11.0305L38.3757 13.839C38.1203 14.2398 37.6133 14.4246 37.1482 14.2554C36.6831 14.0862 36.4136 13.6186 36.4755 13.1474L37.4977 10.3389C37.6934 9.8011 37.4161 9.20638 36.8783 9.01067C36.3405 8.81487 35.7458 9.09221 35.5501 9.63001L35.2368 10.4908C34.9815 10.8916 34.4744 11.0765 34.0093 10.9073C33.5989 10.7579 33.341 10.3762 33.3284 9.96477C33.6937 9.29348 34.2112 8.69514 34.8683 8.22766L40.7156 3.96751C40.9353 3.81126 41.2434 3.92337 41.3112 4.1843C41.3257 4.23977 41.3352 4.29993 41.316 4.35393C40.4505 6.80442 43.0788 9.74231 42.8759 12.9425Z" fill="#5AAECB"/>
<path d="M12.6736 11.1325L11.9563 9.16182C11.7525 8.60195 11.1334 8.31318 10.5735 8.51699C10.0135 8.7208 9.72483 9.33984 9.92864 9.8998L10.6459 11.8705C10.7141 12.3634 10.4346 12.8538 9.94817 13.0309C9.42278 13.2221 8.84534 12.9796 8.60774 12.4864C7.8885 9.58604 7.72161 5.71807 8.75305 3.51562C10.9589 4.53975 13.3174 7.61006 14.6308 10.2942C14.7658 10.8248 14.4793 11.3816 13.9539 11.5729C13.4675 11.7499 12.9381 11.5539 12.6736 11.1325Z" fill="#3CAF96"/>
<path d="M36.7369 29.5635L35.0712 47.8868C31.9899 49.2446 28.5834 50.0001 25 50.0001C21.4166 50.0001 18.0102 49.2446 14.9289 47.8867L13.2632 29.5634C13.2148 29.0306 13.6343 28.5713 14.1693 28.5713H35.8309C36.3658 28.5713 36.7853 29.0307 36.7369 29.5635Z" fill="#9BB9C3"/>
<path d="M35.1928 46.5485L35.0711 47.8867C31.9899 49.2446 28.5834 50.0001 25 50.0001C21.4166 50.0001 18.0102 49.2446 14.9289 47.8867L13.2632 29.5634C13.2148 29.0306 13.6343 28.5713 14.1693 28.5713H16.6042C16.6033 28.6504 16.6016 28.7293 16.6016 28.8087C16.6016 38.7865 23.5972 46.8751 32.2266 46.8751C33.2409 46.8751 34.2323 46.762 35.1928 46.5485Z" fill="#87A0AF"/>
<path d="M39.0649 17.3113C39.0405 17.3781 39.0147 17.4442 38.9881 17.51L38.992 17.5114L37.0504 22.846L37.023 22.9214L31.6884 20.9798L32.3475 19.169L33.6575 15.5698L33.6614 15.5713C33.6833 15.5038 33.706 15.4366 33.7303 15.3698C33.8644 15.0016 35.1672 15.1377 36.6403 15.6738C38.1134 16.2099 39.1988 16.9431 39.0649 17.3113ZM17.9459 20.4732L16.0043 15.1387L16.0004 15.1401C15.9785 15.0727 15.9558 15.0055 15.9316 14.9387C15.7975 14.5704 14.4946 14.7064 13.0215 15.2427C11.5484 15.7789 10.4628 16.5121 10.5969 16.8804C10.6212 16.9472 10.6471 17.0132 10.6736 17.079L10.6696 17.0805L11.9797 20.6797L12.6388 22.4904L17.9734 20.5488L17.9459 20.4732ZM28.1838 10.4623C27.3926 10.2478 26.2594 10.1133 25.0001 10.1133C23.7408 10.1133 22.6076 10.2478 21.8163 10.4623C21.6364 10.5111 21.5258 10.692 21.5604 10.8752L22.1231 13.8575L22.1615 17.5312V19.4581H27.8385V19.3779L27.877 13.8575L28.4397 10.8752C28.4742 10.692 28.3637 10.511 28.1838 10.4623Z" fill="#FFF5AF"/>
<path d="M37.3945 18.5807L37.3888 18.5962C37.262 18.9448 36.8862 19.1311 36.5299 19.0278C36.4688 19.0102 36.4079 18.9902 36.3472 18.9682L35.1701 18.5397L34.8924 19.3029L36.0695 19.7313C36.1044 19.744 36.1393 19.756 36.1743 19.7672C36.5577 19.8902 36.769 20.2991 36.6313 20.6774L36.6257 20.6929C36.4988 21.0415 36.123 21.2277 35.7667 21.1245C35.7056 21.1068 35.6447 21.087 35.5841 21.0649L34.4069 20.6365L33.9787 21.8132L31.6884 20.9796L32.3474 19.1688L32.3944 19.0398L32.8799 17.7062L33.6575 15.5696L33.6614 15.5711C33.6833 15.5036 33.7059 15.4364 33.7303 15.3696C33.8643 15.0014 35.1672 15.1375 36.6403 15.6736C37.0503 15.8229 37.4301 15.9873 37.762 16.1549C36.823 15.9345 36.1174 15.9374 36.0206 16.2032C35.9963 16.27 35.9736 16.3373 35.9517 16.4047L35.9477 16.4032L35.6555 17.2062L36.8327 17.6346C36.8676 17.6473 36.9025 17.6592 36.9375 17.6704C37.3209 17.7934 37.5322 18.2022 37.3945 18.5807ZM16.2311 19.0814C16.0934 18.703 15.6687 18.5257 15.2959 18.6779C15.2619 18.6918 15.2274 18.7052 15.1926 18.7179L14.0153 19.1463L13.7376 18.3831L14.9147 17.9547C14.9754 17.9326 15.0347 17.9087 15.0929 17.883C15.4322 17.733 15.6004 17.3487 15.4735 17.0002L15.4679 16.9848C15.3302 16.6063 14.9054 16.429 14.5327 16.5813C14.4987 16.5952 14.4642 16.6085 14.4294 16.6211L13.2522 17.0495L12.96 16.2466L12.964 16.2451C12.9375 16.1794 12.9116 16.1133 12.8873 16.0465C12.7906 15.7807 13.3293 15.3248 14.1902 14.8901C13.8281 14.9751 13.4315 15.0933 13.0216 15.2425C11.5484 15.7786 10.4629 16.5119 10.597 16.8802C10.6213 16.947 10.6471 17.013 10.6737 17.0788L10.6697 17.0803L11.4473 19.2168L11.6957 19.8991L11.9797 20.6794L12.6387 22.4901L14.9291 21.6565L14.5009 20.4799L15.678 20.0515C15.7387 20.0294 15.798 20.0055 15.8562 19.9798C16.1955 19.8298 16.3637 19.4455 16.2368 19.097L16.2311 19.0814ZM25.9623 14.5529C25.9256 14.5544 25.8887 14.5551 25.8515 14.5551H24.5988V12.7854C24.5887 12.7857 24.0793 10.1377 24.0793 10.1377C23.1935 10.1856 22.409 10.3015 21.8163 10.4621C21.6364 10.5109 21.5258 10.6918 21.5603 10.875L22.123 13.8573L22.1615 15.9744V17.3937V17.531V19.4579H24.5988V18.8116V18.2058H25.8515C25.9161 18.2058 25.9801 18.2036 26.0435 18.1993C26.4137 18.1744 26.7031 17.8708 26.7031 17.4999V17.4835C26.7031 17.0809 26.3647 16.7688 25.9623 16.7845C25.9256 16.7859 25.8887 16.7866 25.8515 16.7866H24.5988V15.9745H25.8515C25.9161 15.9745 25.9801 15.9724 26.0435 15.9681C26.4137 15.9432 26.7031 15.6396 26.7031 15.2687V15.2522C26.7031 14.8493 26.3647 14.5374 25.9623 14.5529Z" fill="#E6B464"/>
</g>
<defs>
<clipPath id="clip0_353_111">
<rect width="50" height="50" fill="white"/>
</clipPath>
</defs>
</svg>
