<svg width="18" height="18" viewBox="0 0 18 18" fill="none" xmlns="http://www.w3.org/2000/svg">
<g clip-path="url(#clip0_709_2638)">
<path d="M16.2297 9.77441C16.038 9.77441 15.8541 9.85059 15.7185 9.98619C15.5829 10.1218 15.5067 10.3057 15.5067 10.4975V13.5436C15.5061 14.0779 15.2936 14.5901 14.9158 14.9679C14.5381 15.3457 14.0258 15.5582 13.4916 15.5587H4.50709C3.97283 15.5582 3.46061 15.3457 3.08283 14.9679C2.70504 14.5901 2.49255 14.0779 2.49198 13.5436V10.4975C2.49198 10.3057 2.4158 10.1218 2.2802 9.98619C2.14461 9.85059 1.9607 9.77441 1.76894 9.77441C1.57718 9.77441 1.39327 9.85059 1.25767 9.98619C1.12208 10.1218 1.0459 10.3057 1.0459 10.4975V13.5436C1.04686 14.4613 1.41182 15.3411 2.06072 15.99C2.70961 16.6389 3.58942 17.0039 4.50709 17.0048H13.4916C14.4093 17.0039 15.2891 16.6389 15.938 15.99C16.5869 15.3411 16.9518 14.4613 16.9528 13.5436V10.4975C16.9528 10.3057 16.8766 10.1218 16.741 9.98619C16.6054 9.85059 16.4215 9.77441 16.2297 9.77441Z" fill="#183E4B"/>
<path d="M5.17261 7.81733L8.27662 10.9213V1.82116C8.27662 1.6294 8.3528 1.44549 8.48839 1.3099C8.62399 1.1743 8.8079 1.09812 8.99966 1.09812C9.19142 1.09812 9.37533 1.1743 9.51093 1.3099C9.64652 1.44549 9.7227 1.6294 9.7227 1.82116V10.9213L12.8267 7.81733C12.9631 7.68563 13.1457 7.61275 13.3353 7.6144C13.5249 7.61604 13.7062 7.69208 13.8403 7.82614C13.9743 7.9602 14.0504 8.14155 14.052 8.33113C14.0537 8.5207 13.9808 8.70335 13.8491 8.83971L9.51085 13.178C9.37526 13.3135 9.19138 13.3896 8.99966 13.3896C8.80794 13.3896 8.62406 13.3135 8.48847 13.178L4.15023 8.83971C4.01852 8.70335 3.94565 8.5207 3.94729 8.33113C3.94894 8.14155 4.02498 7.9602 4.15904 7.82614C4.2931 7.69208 4.47444 7.61604 4.66402 7.6144C4.8536 7.61275 5.03624 7.68563 5.17261 7.81733Z" fill="#183E4B"/>
</g>
<defs>
<clipPath id="clip0_709_2638">
<rect width="17.353" height="17.353" fill="white" transform="translate(0.323242 0.375)"/>
</clipPath>
</defs>
</svg>
