<svg width="50" height="50" viewBox="0 0 50 50" fill="none" xmlns="http://www.w3.org/2000/svg">
<path d="M25 47.9168C37.6565 47.9168 47.9166 37.6567 47.9166 25.0002C47.9166 12.3436 37.6565 2.0835 25 2.0835C12.3435 2.0835 2.08331 12.3436 2.08331 25.0002C2.08331 37.6567 12.3435 47.9168 25 47.9168Z" fill="#FFF79F"/>
<path d="M28.125 12.5H13.5417C12.7129 12.5 11.918 12.8292 11.332 13.4153C10.7459 14.0013 10.4167 14.7962 10.4167 15.625V28.125C10.4167 28.9538 10.7459 29.7487 11.332 30.3347C11.918 30.9208 12.7129 31.25 13.5417 31.25H20.8334V21.875C20.8334 21.5987 20.9431 21.3338 21.1385 21.1384C21.3338 20.9431 21.5988 20.8333 21.875 20.8333H31.25V15.625C31.25 14.7962 30.9208 14.0013 30.3347 13.4153C29.7487 12.8292 28.9538 12.5 28.125 12.5Z" fill="#616161"/>
<path d="M32.2917 15.625H17.7084C16.8796 15.625 16.0847 15.9542 15.4987 16.5403C14.9126 17.1263 14.5834 17.9212 14.5834 18.75V31.25C14.5834 32.0788 14.9126 32.8737 15.4987 33.4597C16.0847 34.0458 16.8796 34.375 17.7084 34.375H20.8334V21.875C20.8334 21.5987 20.9431 21.3338 21.1385 21.1384C21.3338 20.9431 21.5988 20.8333 21.875 20.8333H35.4167V18.75C35.4167 17.9212 35.0875 17.1263 34.5014 16.5403C33.9154 15.9542 33.1205 15.625 32.2917 15.625Z" fill="#EEEEEE"/>
<path d="M36.4583 18.75H21.875C20.1491 18.75 18.75 20.1491 18.75 21.875V34.375C18.75 36.1009 20.1491 37.5 21.875 37.5H36.4583C38.1842 37.5 39.5833 36.1009 39.5833 34.375V21.875C39.5833 20.1491 38.1842 18.75 36.4583 18.75Z" fill="#5AAECB"/>
<path d="M26.5961 30.1432C26.2976 29.849 25.9439 29.6167 25.5552 29.4598C25.1666 29.303 24.7507 29.2246 24.3317 29.2292C23.9117 29.2352 23.4974 29.3265 23.1137 29.4974C22.7301 29.6683 22.3851 29.9154 22.0998 30.2236L19.0297 33.5189C18.8499 33.7116 18.7499 33.9654 18.75 34.229V34.375C18.75 35.2038 19.0792 35.9986 19.6653 36.5847C20.2513 37.1707 21.0462 37.5 21.875 37.5H26.2669L29.6506 33.199L26.5961 30.1432Z" fill="#7CB342"/>
<path d="M26.5625 27.0833C28.0008 27.0833 29.1667 25.9174 29.1667 24.4792C29.1667 23.0409 28.0008 21.875 26.5625 21.875C25.1243 21.875 23.9584 23.0409 23.9584 24.4792C23.9584 25.9174 25.1243 27.0833 26.5625 27.0833Z" fill="#FFF79F"/>
<path d="M39.5833 30.9585V34.3751C39.5809 35.2032 39.2509 35.9966 38.6654 36.5822C38.0798 37.1677 37.2864 37.4977 36.4583 37.5001H23.7812L31.3125 27.7397C31.5842 27.3922 31.9259 27.1057 32.3155 26.8988C32.7051 26.6919 33.1338 26.5692 33.5739 26.5388C34.014 26.5083 34.4555 26.5707 34.8699 26.722C35.2843 26.8733 35.6622 27.11 35.9792 27.4168L39.5833 30.9585Z" fill="#8BC34A"/>
</svg>
