<svg width="37" height="33" viewBox="0 0 37 33" fill="none" xmlns="http://www.w3.org/2000/svg">
<path d="M18.1578 32.3644L18.1826 32.3878C17.8937 32.3321 17.6231 32.2007 17.3991 32.0045L17.3988 32.0042C15.9021 30.6955 14.4594 29.4659 13.1886 28.383C13.188 28.3825 13.1873 28.382 13.1867 28.3814L13.184 28.3791L13.184 28.379L13.1802 28.3758C9.44135 25.1896 6.26068 22.4768 4.05471 19.8151C3.43867 19.0717 2.90762 18.341 2.45777 17.6161L18.1578 32.3644ZM19.6008 32.0049C19.3774 32.2005 19.1071 32.3317 18.8186 32.3876L18.848 32.3591L34.8479 16.8591L34.9625 16.748L34.9916 16.591L35.9988 11.1521C36.8685 6.45611 33.6997 1.96559 28.9839 1.21106L25.2326 0.610857C25.6993 0.536994 26.1766 0.5 26.664 0.5C29.3835 0.5 31.878 1.58701 33.6975 3.56039C35.4972 5.51256 36.5 8.1928 36.5 11.1196C36.5 14.1051 35.3942 16.8604 32.9456 19.8148L32.9456 19.8148C30.7396 22.4768 27.5593 25.1893 23.8209 28.3752C22.5474 29.4602 21.1018 30.6923 19.6009 32.0048L19.6008 32.0049ZM21.1565 2.4023C21.9652 1.77687 22.8259 1.30493 23.7339 0.987564L18.4876 5.35957L12.5103 0.761738C13.6994 1.0581 14.8138 1.6057 15.8438 2.4023C16.672 3.04295 17.4268 3.83018 18.0948 4.75398L18.4999 5.31414L18.9051 4.75406C19.5735 3.83013 20.3281 3.04292 21.1565 2.40231L21.1565 2.4023ZM10.3362 0.5C10.7749 0.5 11.2054 0.529961 11.6273 0.589791L3.99725 2.8788C5.73355 1.33822 7.94796 0.5 10.3362 0.5ZM1.49996 6.30705L1.49996 15.8113C0.820993 14.2695 0.5 12.7279 0.5 11.1196C0.5 9.39735 0.847342 7.76046 1.49996 6.30705ZM18.1952 6.39631L18.5126 6.64043L18.8202 6.38411L19.7047 5.64702C19.5275 5.90207 19.3748 6.14286 19.2458 6.35887C19.0864 6.62597 18.8101 6.78274 18.5 6.78274C18.1899 6.78274 17.9137 6.62602 17.7542 6.35898C17.6459 6.17741 17.5207 5.97833 17.3784 5.768L18.1952 6.39631ZM25.7977 1.71399C25.1241 1.78737 24.4739 1.94722 23.8507 2.19196L24.6454 1.52964L25.7977 1.71399ZM32.8392 4.35158C32.4145 3.89102 31.9475 3.48556 31.4457 3.13847C33.4976 4.34652 34.8766 6.48429 35.1079 8.87881C34.7518 7.15147 33.9798 5.58884 32.8392 4.35159L32.4715 4.69049L32.8392 4.35158ZM33.9377 16.3486C33.9802 16.2715 34.0218 16.1945 34.0623 16.1175L34.0374 16.252L33.9377 16.3486ZM2.49996 15.1966C2.81567 15.9412 3.22336 16.6833 3.72679 17.4362L2.49996 16.2837L2.49996 15.1966ZM4.16084 4.35159C3.46746 5.10371 2.91029 5.97606 2.49996 6.93256L2.49996 4.74403C2.49996 4.52323 2.6448 4.32856 2.85629 4.26512L4.8804 3.65788C4.62913 3.87288 4.38889 4.10427 4.16088 4.35154L4.16084 4.35159ZM12.4075 1.94426C12.0513 1.84564 11.6873 1.77319 11.316 1.7272L11.8982 1.55254L12.4075 1.94426ZM14.5179 4.11666C15.6385 4.98331 16.428 6.08777 16.8954 6.87128L16.8955 6.87139C17.2352 7.44042 17.8373 7.78274 18.5 7.78274C19.1627 7.78274 19.7648 7.44042 20.1045 6.87139L19.6752 6.61513L20.1045 6.87139C20.5722 6.08778 21.3618 4.98331 22.4821 4.11666C23.7301 3.15164 25.1331 2.6674 26.664 2.6674C28.7714 2.6674 30.7001 3.50666 32.1039 5.0294C33.5318 6.57828 34.3329 8.73591 34.3329 11.1196C34.3329 13.6032 33.4185 15.8479 31.277 18.4322C29.1911 20.9491 26.0775 23.6044 22.4151 26.7258C21.2292 27.7361 19.8951 28.8731 18.4975 30.0867C17.1075 28.8754 15.7756 27.7403 14.5925 26.732L14.5926 26.732L14.5883 26.7285L14.5836 26.7245C10.9219 23.6039 7.80874 20.9486 5.72332 18.4322L5.72331 18.4322C3.58152 15.8479 2.66712 13.6032 2.66712 11.1196C2.66712 8.73591 3.46817 6.57828 4.89608 5.0294C6.30024 3.50664 8.22859 2.6674 10.3362 2.6674C11.8669 2.6674 13.2699 3.15164 14.5179 4.11666Z" stroke="white"/>
</svg>
