<svg width="37" height="33" viewBox="0 0 37 33" fill="none" xmlns="http://www.w3.org/2000/svg">
<path d="M18.5001 32L1.99996 16.5L1.99996 4.74403C1.99996 4.30242 2.28963 3.9131 2.71262 3.7862L12 1L18.5001 6L24.5 1L28.9049 1.70478C33.3433 2.41493 36.3257 6.6413 35.5072 11.061L34.5 16.5L18.5001 32Z" fill="white"/>
<path d="M18.5 32.9181C17.9733 32.9181 17.4654 32.7273 17.0696 32.3806C15.5749 31.0737 14.1339 29.8454 12.8624 28.762L12.8559 28.7564C9.12833 25.5798 5.90941 22.8365 3.66974 20.1342C1.16613 17.1131 0 14.2487 0 11.1196C0 8.07935 1.04249 5.27454 2.93523 3.22147C4.85055 1.14411 7.47865 0 10.3362 0C12.472 0 14.428 0.675232 16.1497 2.00678C17.0186 2.67891 17.8061 3.5015 18.5 4.46099C19.1941 3.5015 19.9814 2.67891 20.8506 2.00678C22.5723 0.675232 24.5283 0 26.664 0C29.5214 0 32.1497 1.14411 34.0651 3.22147C35.9578 5.27454 37 8.07935 37 11.1196C37 14.2487 35.8342 17.1131 33.3305 20.1339C31.0909 22.8365 27.8722 25.5795 24.1452 28.7558C22.8715 29.8409 21.4282 31.0711 19.9301 32.3812C19.5346 32.7273 19.0265 32.9181 18.5 32.9181ZM10.3362 2.1674C8.09121 2.1674 6.02882 3.06339 4.52846 4.69049C3.0058 6.34216 2.16712 8.6253 2.16712 11.1196C2.16712 13.7514 3.14525 16.1051 5.33834 18.7512C7.45804 21.309 10.6109 23.9959 14.2615 27.1069L14.2682 27.1126C15.5444 28.2002 16.9912 29.4333 18.4969 30.7499C20.0117 29.4307 21.4606 28.1957 22.7394 27.1064C26.3897 23.9953 29.5422 21.309 31.6619 18.7512C33.8548 16.1051 34.8329 13.7514 34.8329 11.1196C34.8329 8.6253 33.9942 6.34216 32.4715 4.69049C30.9715 3.06339 28.9088 2.1674 26.664 2.1674C25.0194 2.1674 23.5095 2.6902 22.1762 3.72112C20.9881 4.64024 20.1604 5.80214 19.6752 6.61513C19.4256 7.0332 18.9864 7.28274 18.5 7.28274C18.0136 7.28274 17.5744 7.0332 17.3248 6.61513C16.8399 5.80214 16.0122 4.64024 14.8238 3.72112C13.4905 2.6902 11.9806 2.1674 10.3362 2.1674Z" fill="white"/>
</svg>
