<?xml version="1.0" encoding="UTF-8"?>
<svg id="Layer_1" data-name="Layer 1" xmlns="http://www.w3.org/2000/svg" xmlns:xlink="http://www.w3.org/1999/xlink" viewBox="0 0 450 74.82">
  <defs>
    <style>
      .cls-1 {
        fill: url(#linear-gradient);
      }

      .cls-1, .cls-2 {
        stroke-width: 0px;
      }

      .cls-2 {
        fill: #eb5757;
      }
    </style>
    <linearGradient id="linear-gradient" x1="344.37" y1="-49.37" x2="344.37" y2="-146.43" gradientTransform="translate(-56 -69.18) scale(1 -1)" gradientUnits="userSpaceOnUse">
      <stop offset="0" stop-color="#183e4b"/>
      <stop offset="1" stop-color="#0d5771"/>
    </linearGradient>
  </defs>
  <path class="cls-2" d="m0,57.83V0h14.15v22.32h5.82L31.95,0h15.21l-15.61,27.66v.16l16.5,30.01h-15.85l-12.21-23.46h-5.82v23.46H0ZM54.55,10.92V0h13.67v10.92h-13.67Zm-.16,46.91V16.18h13.99v41.65h-13.99Zm21.5-20.87c0-13.18,7.93-21.76,19.01-21.76,8.41,0,10.92,3.32,10.92,3.32h.16s-.08-.81-.08-1.86V0h13.99v57.83h-13.1v-2.75c0-1.29.08-2.35.08-2.35h-.16s-3.48,6.07-12.05,6.07c-11.32,0-18.76-8.9-18.76-21.84Zm14.07,0c0,6.23,3.32,10.27,8.17,10.27,4.21,0,8.17-3.07,8.17-10.27,0-5.01-2.67-9.95-8.17-9.95-4.37,0-8.17,3.56-8.17,9.95Z"/>
  <path class="cls-1" d="m126.73,40.04v-4.21h14.15v3.07c0,2.18.4,3.8,1.13,4.85.97,1.54,2.59,2.1,4.21,2.1,2.99,0,5.1-1.94,5.1-6.15V12.13h-15.53V0h29.68v40.04c0,12.7-9.71,18.76-19.41,18.76s-19.33-6.23-19.33-18.76Zm46.93-2.91c0-13.1,10.51-21.92,23.54-21.92s23.7,8.82,23.7,21.92-10.51,21.68-23.62,21.68-23.62-8.65-23.62-21.68Zm14.15,0c0,6.23,4.37,10.03,9.46,10.03s9.46-3.8,9.46-10.03-4.37-10.27-9.46-10.27-9.46,3.96-9.46,10.27Zm39.77,6.07v-27.01h13.99v24.43c0,3.88,1.54,5.5,4.45,5.5,5.99,0,8.82-5.26,8.82-11.49v-18.44h13.99v41.65h-13.43v-3.64c0-1.38.16-2.59.16-2.59h-.16c-2.26,4.45-7.44,7.2-13.02,7.2-8.25,0-14.8-3.88-14.8-15.61Zm51.59,14.64V16.18h13.43v7.04c0,1.38-.16,2.59-.16,2.59h.16c1.78-5.66,7.04-10.35,13.26-10.35.81,0,1.62.16,1.62.16v13.75s-1.13-.24-2.83-.24c-3.32,0-8.74,1.05-10.76,7.28-.49,1.54-.73,3.4-.73,5.66v15.77h-13.99Zm34.75,0V16.18h13.43v3.64c0,1.38-.16,2.59-.16,2.59h.16c1.94-3.24,5.9-7.2,13.26-7.2,8.41,0,14.96,3.88,14.96,15.61v27.01h-13.99v-24.43c0-3.88-1.54-5.5-4.61-5.5-4.37,0-7.04,2.43-8.25,5.99-.57,1.62-.81,3.48-.81,5.5v18.44h-13.99Zm48.43-20.87c0-12.21,8.25-21.76,21.68-21.76,12.29,0,19.25,8.57,19.25,20.14,0,1.38-.32,4.37-.32,4.37h-26.29c1.05,5.1,5.26,7.44,9.71,7.44,5.99,0,11.49-4.21,11.49-4.21l5.18,9.79s-6.71,6.07-17.79,6.07c-14.88,0-22.89-10.76-22.89-21.84Zm14.64-5.26h12.21c0-3.15-2.18-5.99-5.5-5.99-4.04,0-5.99,2.91-6.71,5.99Zm28.83,40.2l4.45-10.27s2.26,1.54,4.29,1.54c2.26,0,5.26-.65,6.71-4.21l.81-1.94-17.71-40.85h15.85l6.15,19.17c.73,2.26,1.54,6.47,1.54,6.47h.16s.81-3.96,1.38-6.23l5.26-19.41h15.29l-17.07,46.1c-3.48,9.3-10.76,12.54-17.39,12.54-5.5,0-9.71-2.91-9.71-2.91Z"/>
</svg>