<svg width="16" height="17" viewBox="0 0 16 17" fill="none" xmlns="http://www.w3.org/2000/svg">
<g clip-path="url(#clip0_667_260)">
<path d="M15.6211 14.5408L11.9426 10.6321C12.5676 9.57491 12.9303 8.32535 12.9303 6.98433C12.9303 3.19041 10.0356 0.115234 6.46503 0.115234C2.89442 0.115234 0 3.19041 0 6.98433C0 10.7784 2.89429 13.8533 6.46503 13.8533C7.83856 13.8533 9.1108 13.397 10.1577 12.6218L13.7924 16.4839C14.045 16.752 14.3761 16.8855 14.7068 16.8855C15.0378 16.8855 15.3685 16.752 15.6215 16.4839C16.1262 15.9471 16.1262 15.0775 15.6211 14.5408ZM6.46503 11.6278C4.05162 11.6278 2.09498 9.54901 2.09498 6.98462C2.09498 4.42023 4.05162 2.34129 6.46503 2.34129C8.87858 2.34129 10.8351 4.42023 10.8351 6.98462C10.8351 9.54901 8.87858 11.6278 6.46503 11.6278Z" fill="#183E4B"/>
</g>
<defs>
<clipPath id="clip0_667_260">
<rect width="16" height="17" fill="white"/>
</clipPath>
</defs>
</svg>
