<svg width="13" height="13" viewBox="0 0 13 13" fill="none" xmlns="http://www.w3.org/2000/svg">
<path d="M12.2157 7.00396L10.4914 8.79499C10.4343 8.85262 10.3614 8.89209 10.282 8.90847C10.2025 8.92485 10.12 8.91741 10.0447 8.88708C9.96945 8.85674 9.90482 8.80487 9.85893 8.73796C9.81304 8.67104 9.78792 8.59207 9.78672 8.51094V7.73891L7.34922 7.73584V10.1697L8.12463 10.173C8.20576 10.1742 8.28472 10.1994 8.35163 10.2452C8.41854 10.2911 8.47041 10.3558 8.50076 10.431C8.5311 10.5062 8.53856 10.5888 8.52219 10.6682C8.50583 10.7477 8.46638 10.8206 8.40879 10.8777L6.61765 12.602C6.54151 12.6758 6.43964 12.7171 6.3336 12.7171C6.22756 12.7171 6.12569 12.6758 6.04955 12.602L4.25851 10.8777C4.20089 10.8206 4.16142 10.7477 4.14504 10.6683C4.12866 10.5888 4.1361 10.5063 4.16643 10.431C4.19677 10.3558 4.24864 10.2911 4.31555 10.2452C4.38247 10.1993 4.46144 10.1742 4.54256 10.173H5.3146L5.31767 7.73553H2.88385L2.88047 8.51094C2.87927 8.59207 2.85415 8.67103 2.80826 8.73794C2.76237 8.80485 2.69776 8.85672 2.62251 8.88707C2.54726 8.91741 2.46474 8.92487 2.38527 8.90851C2.3058 8.89214 2.23293 8.85269 2.17579 8.7951L0.451506 7.00396C0.377699 6.92782 0.336426 6.82595 0.336426 6.71991C0.336426 6.61387 0.377699 6.512 0.451506 6.43586L2.17579 4.64483C2.23292 4.5872 2.30578 4.54773 2.38525 4.53135C2.46471 4.51497 2.54725 4.52241 2.6225 4.55274C2.69775 4.58308 2.76238 4.63495 2.80827 4.70186C2.85416 4.76878 2.87928 4.84775 2.88047 4.92888V5.70091L5.31797 5.70398V3.27016L4.54256 3.26678C4.46144 3.26558 4.38248 3.24046 4.31557 3.19457C4.24866 3.14868 4.19678 3.08407 4.16644 3.00882C4.1361 2.93357 4.12864 2.85105 4.145 2.77158C4.16136 2.69211 4.20082 2.61924 4.25841 2.5621L6.04955 0.837816C6.12566 0.763962 6.22755 0.722656 6.3336 0.722656C6.43965 0.722656 6.54154 0.763962 6.61765 0.837816L8.40868 2.5621C8.46632 2.61922 8.5058 2.69209 8.52219 2.77156C8.53857 2.85103 8.53113 2.93356 8.50079 3.00882C8.47046 3.08408 8.41858 3.14871 8.35166 3.1946C8.28474 3.24049 8.20577 3.2656 8.12463 3.26678H7.3526L7.34953 5.70428H9.78335L9.78672 4.92888C9.78794 4.84776 9.81306 4.7688 9.85895 4.7019C9.90484 4.63499 9.96946 4.58312 10.0447 4.55278C10.1199 4.52244 10.2025 4.51498 10.2819 4.53134C10.3614 4.54769 10.4343 4.58714 10.4914 4.64472L12.2157 6.43586C12.2895 6.512 12.3308 6.61387 12.3308 6.71991C12.3308 6.82595 12.2895 6.92782 12.2157 7.00396Z" fill="white"/>
</svg>
