<svg width="96" height="96" viewBox="0 0 96 96" fill="none" xmlns="http://www.w3.org/2000/svg">
<g clip-path="url(#clip0_709_2301)">
<path d="M93.2307 74.765H66.9229C61.0693 74.765 56.3079 79.5265 56.3079 85.38C56.3079 88.1793 54.03 90.4571 51.2307 90.4571H10.6157C7.81567 90.4571 5.53857 88.1793 5.53857 85.38V81.6834C5.53857 78.8856 7.81494 76.6085 10.6128 76.607L17.9319 76.6034C17.9341 76.6034 17.937 76.6026 17.9392 76.6026C18.0227 76.6026 18.1062 76.5975 18.1904 76.5902C18.2249 76.5872 18.2585 76.5814 18.293 76.577C18.3289 76.5719 18.3655 76.5689 18.4014 76.5631L37.946 73.1917C37.9563 73.1895 37.9658 73.1873 37.9753 73.1852C38.0061 73.1793 38.0361 73.1727 38.0662 73.1661C38.1152 73.1551 38.1636 73.1441 38.2112 73.1302C38.2449 73.1214 38.2786 73.1112 38.3123 73.1009C38.3569 73.0863 38.4016 73.0709 38.4463 73.054C38.4785 73.0416 38.5115 73.0306 38.5437 73.0174C38.6125 72.9881 38.6799 72.9574 38.7466 72.9229C38.7729 72.909 38.7993 72.8929 38.8257 72.8783C38.8726 72.8519 38.9187 72.8255 38.9641 72.7962C38.9919 72.7787 39.0198 72.7596 39.0476 72.7406C39.0916 72.7098 39.1355 72.6776 39.178 72.6439C39.2007 72.6263 39.2241 72.6087 39.2468 72.5897C39.3113 72.5362 39.3743 72.4806 39.4336 72.4205L88.7959 23.0589C92.7546 19.1002 92.7546 12.6585 88.7959 8.69907L83.0654 2.96933C79.1067 -0.990143 72.6643 -0.98941 68.7056 2.96933L19.344 52.3309C19.2839 52.3902 19.2283 52.4539 19.1741 52.5184C19.1558 52.5404 19.1382 52.5631 19.1206 52.5858C19.0869 52.629 19.0547 52.6729 19.0239 52.7176C19.0049 52.7447 18.9858 52.7726 18.9683 52.8004C18.9397 52.8451 18.9133 52.8905 18.8877 52.9366C18.8708 52.9666 18.8533 52.9967 18.8372 53.0267C18.8049 53.0904 18.7756 53.1541 18.7478 53.2201C18.7339 53.253 18.7222 53.2874 18.709 53.3211C18.6936 53.3636 18.6782 53.4068 18.6643 53.45C18.6533 53.4852 18.6431 53.5204 18.6335 53.5555C18.6211 53.6009 18.6101 53.6471 18.5999 53.6939C18.5925 53.7262 18.5852 53.7584 18.5793 53.7906C18.5771 53.8001 18.575 53.8089 18.5735 53.8177L15.5977 71.0663L10.6099 71.0685C4.75928 71.0714 0 75.8336 0 81.6834V85.38C0 91.2335 4.76221 95.9957 10.6157 95.9957H51.2307C57.0842 95.9957 61.8464 91.2335 61.8464 85.38C61.8464 82.5807 64.1235 80.3028 66.9229 80.3028H93.2307C94.76 80.3028 96 79.0636 96 77.5343C96 76.0042 94.76 74.765 93.2307 74.765ZM23.1226 60.0257L31.7388 68.6419L21.3267 70.4378L23.1226 60.0257ZM64.429 15.0777L68.5994 19.2481L29.3884 58.4591L25.218 54.2887L64.429 15.0777ZM37.4751 66.5457L33.3047 62.3753L72.5164 23.1644L76.6868 27.3348L37.4751 66.5457ZM72.6218 6.88486C74.4214 5.08603 77.3489 5.08603 79.1492 6.88486L84.8789 12.6153C86.6785 14.4149 86.6785 17.3431 84.8789 19.1427L80.6023 23.4193C80.6023 23.4185 80.603 23.4193 80.603 23.4193C80.603 23.4193 80.603 23.4193 80.6023 23.4193L68.3452 11.1615L72.6218 6.88486Z" fill="black"/>
</g>
<defs>
<clipPath id="clip0_709_2301">
<rect width="96" height="96" fill="white"/>
</clipPath>
</defs>
</svg>
