<svg width="18" height="18" viewBox="0 0 18 18" fill="none" xmlns="http://www.w3.org/2000/svg">
<g clip-path="url(#clip0_709_2626)">
<path d="M11.5583 13.9268H6.54524C6.2258 13.9268 5.9668 14.1857 5.9668 14.5052C5.9668 14.8247 6.22577 15.0836 6.54524 15.0836H11.5583C11.8777 15.0836 12.1368 14.8247 12.1368 14.5052C12.1368 14.1857 11.8778 13.9268 11.5583 13.9268Z" fill="#183E4B"/>
<path d="M11.5583 12.1016H6.54524C6.2258 12.1016 5.9668 12.3605 5.9668 12.68C5.9668 12.9995 6.22577 13.2584 6.54524 13.2584H11.5583C11.8777 13.2584 12.1368 12.9995 12.1368 12.68C12.1368 12.3605 11.8778 12.1016 11.5583 12.1016Z" fill="#183E4B"/>
<path d="M16.3783 4.91348H14.5378V1.56575C14.5378 1.24631 14.2789 0.987305 13.9594 0.987305H4.14357C3.82414 0.987305 3.56513 1.24628 3.56513 1.56575V4.91348H1.72467C0.980456 4.91348 0.375 5.51897 0.375 6.26318V12.0826C0.375 12.8268 0.980456 13.4323 1.72467 13.4323H3.56523V16.5373C3.56523 16.8567 3.82421 17.1157 4.14368 17.1157H13.9593C14.2787 17.1157 14.5377 16.8568 14.5377 16.5373V13.4323H16.3783C17.1225 13.4323 17.728 12.8268 17.728 12.0826V6.26318C17.728 5.519 17.1225 4.91348 16.3783 4.91348ZM4.72198 2.14419H13.3809V4.91348H4.72198V2.14419ZM13.3808 15.9588H4.72212C4.72212 15.8458 4.72212 11.3663 4.72212 11.2265H13.3809C13.3808 11.3698 13.3808 15.8501 13.3808 15.9588ZM13.9594 8.31002H12.487C12.1676 8.31002 11.9085 8.05104 11.9085 7.73157C11.9085 7.4121 12.1675 7.15313 12.487 7.15313H13.9594C14.2788 7.15313 14.5378 7.4121 14.5378 7.73157C14.5378 8.05104 14.2789 8.31002 13.9594 8.31002Z" fill="#183E4B"/>
</g>
<defs>
<clipPath id="clip0_709_2626">
<rect width="17.353" height="17.353" fill="white" transform="translate(0.375 0.375)"/>
</clipPath>
</defs>
</svg>
