<svg width="31" height="31" viewBox="0 0 31 31" fill="none" xmlns="http://www.w3.org/2000/svg">
<g clip-path="url(#clip0_353_7)">
<path d="M27.172 16.6637L27.1691 16.6913L27.1909 16.7084L30.04 18.9363C30.0401 18.9363 30.0401 18.9363 30.0401 18.9363C30.5525 19.3431 30.6926 20.0586 30.3736 20.6422C30.3736 20.6423 30.3735 20.6425 30.3734 20.6426L27.398 25.7954L27.3979 25.7954L27.3974 25.7965C27.1738 26.2064 26.7297 26.4705 26.2465 26.4705C26.0785 26.4705 25.9155 26.4394 25.7586 26.3784C25.7585 26.3784 25.7584 26.3783 25.7583 26.3783L22.3875 25.0248L22.3621 25.0147L22.3399 25.0305C21.668 25.5094 21.0069 25.8939 20.3333 26.1985L20.3083 26.2099L20.3044 26.237L19.7916 29.8149L19.7915 29.8158C19.7121 30.4563 19.1453 30.95 18.4732 30.95H12.5316C11.8586 30.95 11.2928 30.4566 11.2121 29.803L11.2119 29.802L10.7004 26.237L10.6965 26.2098L10.6715 26.1985C9.97585 25.8848 9.30323 25.4939 8.66258 25.032L8.64026 25.0159L8.61472 25.0262L5.25388 26.3754C5.25364 26.3755 5.25341 26.3756 5.25318 26.3757C4.56672 26.6274 3.90566 26.3381 3.60095 25.7822L3.60038 25.7812L0.637874 20.6556C0.637776 20.6555 0.637678 20.6553 0.63758 20.6551C0.31198 20.0582 0.451373 19.3428 0.960833 18.9389C0.960856 18.9389 0.960878 18.9389 0.960901 18.9389L3.81264 16.7097L3.83442 16.6927L3.83158 16.6652C3.78654 16.2299 3.7647 15.8532 3.7647 15.5001C3.7647 15.1469 3.78648 14.7702 3.83158 14.3363L3.83443 14.3087L3.81264 14.2917L0.963499 12.0638C0.963466 12.0637 0.963434 12.0637 0.963401 12.0637C0.441674 11.6502 0.302466 10.9093 0.639628 10.3394L0.639882 10.339L3.6068 5.2059L3.60681 5.2059L3.60742 5.2048C3.9089 4.65144 4.63752 4.38651 5.24637 4.62162C5.24647 4.62166 5.24657 4.6217 5.24667 4.62174L8.61732 5.97515L8.64268 5.98533L8.66495 5.96948C9.3356 5.49197 9.99795 5.10617 10.6715 4.80282L10.6965 4.79153L10.7004 4.76432L11.2132 1.18509L11.2132 1.18509L11.2133 1.18416C11.2928 0.543647 11.8584 0.05 12.5303 0.05H18.472C19.1437 0.05 19.7107 0.543469 19.7915 1.19451L19.7916 1.19545L20.3031 4.76172L20.307 4.78896L20.3321 4.80023C21.0277 5.11266 21.7003 5.50358 22.3422 5.96669L22.3646 5.98281L22.3901 5.97255L25.751 4.62329C25.7512 4.6232 25.7515 4.62312 25.7517 4.62304C26.4318 4.37255 27.0992 4.65946 27.4039 5.21649L27.4039 5.2165L27.4044 5.21752L30.3669 10.3431C30.367 10.3433 30.3671 10.3435 30.3672 10.3436C30.6929 10.9418 30.5522 11.6573 30.0427 12.0599L27.1909 14.2891L27.169 14.3062L27.172 14.3339C27.2093 14.6762 27.2389 15.076 27.2389 15.4987C27.2389 15.9214 27.208 16.3212 27.172 16.6637ZM10.2845 15.5C10.2845 18.377 12.6241 20.7166 15.5011 20.7166C18.3781 20.7166 20.7178 18.377 20.7178 15.5C20.7178 12.623 18.3781 10.2834 15.5011 10.2834C12.6241 10.2834 10.2845 12.623 10.2845 15.5Z" fill="url(#paint0_radial_353_7)" stroke="white" stroke-width="0.1"/>
</g>
<defs>
<radialGradient id="paint0_radial_353_7" cx="0" cy="0" r="1" gradientUnits="userSpaceOnUse" gradientTransform="translate(15.5 15.5) rotate(90) scale(15.5 15.0937)">
<stop stop-color="#143540"/>
<stop offset="0.494792" stop-color="#183E4B"/>
<stop offset="1" stop-color="#112E37"/>
</radialGradient>
<clipPath id="clip0_353_7">
<rect width="31" height="31" fill="white"/>
</clipPath>
</defs>
</svg>
