<svg width="30" height="30" viewBox="0 0 30 30" fill="none" xmlns="http://www.w3.org/2000/svg">
<g clip-path="url(#clip0_362_672)">
<circle cx="15" cy="15" r="15" fill="url(#paint0_linear_362_672)"/>
<path d="M15 0C6.72913 0 0 6.72913 0 15C0 23.2709 6.72913 30 15 30C23.2709 30 30 23.2709 30 15C30 6.72913 23.2709 0 15 0ZM15 28.6957C7.44783 28.6957 1.30435 22.5522 1.30435 15C1.30435 7.44783 7.44783 1.30435 15 1.30435C22.5522 1.30435 28.6957 7.44783 28.6957 15C28.6957 22.5522 22.5522 28.6957 15 28.6957Z" fill="url(#paint1_linear_362_672)"/>
<path d="M21.3046 18.4271C21.0359 18.1864 20.6231 18.2099 20.3837 18.478C19.0233 19.9982 17.0615 20.8695 15 20.8695C12.9391 20.8695 10.9768 19.9982 9.61632 18.478C9.37567 18.2099 8.96415 18.1864 8.69545 18.4271C8.42675 18.6671 8.40458 19.0793 8.64458 19.348C10.2522 21.144 12.5687 22.1738 15 22.1738C17.432 22.1738 19.7485 21.1434 21.3554 19.348C21.5954 19.0793 21.5726 18.6671 21.3046 18.4271Z" fill="white"/>
<path d="M20.2174 10.4346C18.4194 10.4346 16.9565 11.8974 16.9565 13.6954C16.9565 14.0554 17.2487 14.3476 17.6087 14.3476C17.9687 14.3476 18.2609 14.0554 18.2609 13.6954C18.2609 12.6167 19.1387 11.7389 20.2174 11.7389C21.2961 11.7389 22.1739 12.6167 22.1739 13.6954C22.1739 14.0554 22.4661 14.3476 22.8261 14.3476C23.1861 14.3476 23.4783 14.0554 23.4783 13.6954C23.4783 11.8974 22.0155 10.4346 20.2174 10.4346Z" fill="white"/>
<path d="M11.7391 13.6954C11.7391 14.0554 12.0313 14.3476 12.3913 14.3476C12.7513 14.3476 13.0435 14.0554 13.0435 13.6954C13.0435 11.8974 11.5806 10.4346 9.7826 10.4346C7.98455 10.4346 6.52173 11.8974 6.52173 13.6954C6.52173 14.0554 6.8139 14.3476 7.1739 14.3476C7.5339 14.3476 7.82608 14.0554 7.82608 13.6954C7.82608 12.6167 8.7039 11.7389 9.7826 11.7389C10.8613 11.7389 11.7391 12.6167 11.7391 13.6954Z" fill="white"/>
</g>
<defs>
<linearGradient id="paint0_linear_362_672" x1="15" y1="0" x2="15" y2="30" gradientUnits="userSpaceOnUse">
<stop stop-color="#59ACC9"/>
<stop offset="1" stop-color="#183E4B"/>
</linearGradient>
<linearGradient id="paint1_linear_362_672" x1="15" y1="0" x2="15" y2="30" gradientUnits="userSpaceOnUse">
<stop stop-color="#59ACC9"/>
<stop offset="1" stop-color="#183E4B"/>
</linearGradient>
<clipPath id="clip0_362_672">
<rect width="30" height="30" fill="white"/>
</clipPath>
</defs>
</svg>
