<svg width="57" height="55" viewBox="0 0 57 55" fill="none" xmlns="http://www.w3.org/2000/svg">
<g filter="url(#filter0_d_613_3733)">
<path d="M27.5489 11.927C27.8483 11.0057 29.1517 11.0057 29.4511 11.9271L31.7555 19.0193C31.8893 19.4313 32.2733 19.7102 32.7065 19.7102H40.1637C41.1324 19.7102 41.5352 20.9499 40.7515 21.5193L34.7185 25.9025C34.368 26.1571 34.2213 26.6085 34.3552 27.0205L36.6596 34.1127C36.959 35.034 35.9045 35.8001 35.1208 35.2307L29.0878 30.8475C28.7373 30.5929 28.2627 30.5929 27.9122 30.8475L21.8792 35.2307C21.0955 35.8001 20.041 35.034 20.3404 34.1127L22.6448 27.0205C22.7787 26.6085 22.632 26.1571 22.2815 25.9025L16.2485 21.5193C15.4648 20.9499 15.8676 19.7102 16.8363 19.7102H24.2935C24.7267 19.7102 25.1107 19.4313 25.2445 19.0193L27.5489 11.927Z" fill="white"/>
<path d="M28.2622 12.1588C28.3371 11.9285 28.6629 11.9285 28.7378 12.1588L31.0422 19.251C31.2764 19.9721 31.9484 20.4602 32.7065 20.4602H40.1637C40.4059 20.4602 40.5066 20.7701 40.3106 20.9125L34.2777 25.2957C33.6643 25.7413 33.4076 26.5312 33.6419 27.2523L35.9463 34.3445C36.0212 34.5748 35.7575 34.7663 35.5616 34.624L29.5286 30.2408C28.9153 29.7951 28.0847 29.7951 27.4714 30.2408L21.4384 34.624C21.2425 34.7663 20.9788 34.5748 21.0537 34.3445L23.3581 27.2523C23.5924 26.5312 23.3357 25.7413 22.7224 25.2957L16.6894 20.9125C16.4934 20.7701 16.5941 20.4602 16.8363 20.4602H24.2935C25.0516 20.4602 25.7236 19.9721 25.9578 19.251L28.2622 12.1588Z" stroke="white" stroke-width="1.5"/>
</g>
<defs>
<filter id="filter0_d_613_3733" x="0.834473" y="0.23584" width="55.3311" height="54.1904" filterUnits="userSpaceOnUse" color-interpolation-filters="sRGB">
<feFlood flood-opacity="0" result="BackgroundImageFix"/>
<feColorMatrix in="SourceAlpha" type="matrix" values="0 0 0 0 0 0 0 0 0 0 0 0 0 0 0 0 0 0 127 0" result="hardAlpha"/>
<feOffset dy="4"/>
<feGaussianBlur stdDeviation="7.5"/>
<feComposite in2="hardAlpha" operator="out"/>
<feColorMatrix type="matrix" values="0 0 0 0 0 0 0 0 0 0 0 0 0 0 0 0 0 0 0.2 0"/>
<feBlend mode="normal" in2="BackgroundImageFix" result="effect1_dropShadow_613_3733"/>
<feBlend mode="normal" in="SourceGraphic" in2="effect1_dropShadow_613_3733" result="shape"/>
</filter>
</defs>
</svg>
