<svg width="45" height="45" viewBox="0 0 45 45" fill="none" xmlns="http://www.w3.org/2000/svg">
<path d="M38.3203 5.27344H30.4818L29.6249 2.70369C29.0854 1.08659 27.5777 0 25.8732 0H19.1268C17.4222 0 15.9146 1.08659 15.3739 2.70369L14.518 5.27344H6.67969C4.49877 5.27344 2.72461 7.0476 2.72461 9.22852V11.8652C2.72461 13.3337 4.04657 13.1836 5.4653 13.1836C17.6429 13.1836 28.6838 13.1836 40.957 13.1836C41.6857 13.1836 42.2754 12.5939 42.2754 11.8652V9.22852C42.2754 7.0476 40.5012 5.27344 38.3203 5.27344ZM17.298 5.27344L17.8755 3.53795C18.0557 2.99848 18.5591 2.63672 19.1268 2.63672H25.8732C26.4409 2.63672 26.9444 2.99848 27.1233 3.53795L27.7014 5.27344H17.298Z" fill="url(#paint0_linear_614_4629)"/>
<path d="M5.68359 15.9961L7.78567 41.4028C7.97235 43.4537 9.66539 45 11.7241 45H33.2762C35.3348 45 37.0278 43.4537 37.2158 41.3912L39.3167 15.9961H5.68359ZM15.9083 38.4082C15.9083 40.1461 13.2715 40.1532 13.2715 38.4082V19.9512C13.2715 18.2133 15.9083 18.2062 15.9083 19.9512V38.4082ZM23.8184 38.4082C23.8184 40.1461 21.1817 40.1532 21.1817 38.4082V19.9512C21.1817 18.2133 23.8184 18.2062 23.8184 19.9512V38.4082ZM31.7286 38.4082C31.7286 40.1461 29.0919 40.1532 29.0919 38.4082V19.9512C29.0919 19.2225 29.6815 18.6328 30.4102 18.6328C31.1389 18.6328 31.7286 19.2225 31.7286 19.9512V38.4082Z" fill="url(#paint1_linear_614_4629)"/>
<defs>
<linearGradient id="paint0_linear_614_4629" x1="22.5" y1="0" x2="22.5" y2="13.1879" gradientUnits="userSpaceOnUse">
<stop stop-color="#5AAECB"/>
<stop offset="1" stop-color="#183E4B"/>
</linearGradient>
<linearGradient id="paint1_linear_614_4629" x1="22.5001" y1="15.9961" x2="22.5001" y2="45" gradientUnits="userSpaceOnUse">
<stop stop-color="#5AAECB"/>
<stop offset="1" stop-color="#183E4B"/>
</linearGradient>
</defs>
</svg>
